<svg width="294" height="112" viewBox="0 0 294 112" fill="none"
    xmlns="http://www.w3.org/2000/svg">
    <path d="M0 109.196H21.2646V79.4548C21.2646 63.7937 29.598 53.3051 45.5464 53.3051H47.8453V31.8969C41.8108 31.8969 37.5004 32.4716 33.3337 34.3394C27.8738 36.782 23.5635 42.0981 20.5462 47.989V33.7647H0V109.196Z" fill="#10B981"/>
    <path d="M70.7734 110.777C82.5551 110.777 91.0322 106.036 95.3426 99.1389H95.7737V109.196H116.32V64.6558C116.32 39.7993 103.963 31.4658 82.9862 31.4658C56.8365 31.4658 49.6525 44.397 49.2215 57.3282H69.624C69.9113 52.7304 72.7849 47.2706 82.6988 47.2706C91.607 47.2706 94.9116 52.012 94.9116 59.7707V63.6501H90.3138C71.6355 63.6501 61.0032 66.2363 54.3939 70.9777C48.5031 75.2881 45.6295 81.179 45.6295 88.363C45.6295 100.001 52.9572 110.777 70.7734 110.777ZM78.8195 96.409C71.6355 96.409 67.0378 93.3917 67.0378 87.2135C67.0378 78.1617 77.9574 74.7134 91.8943 74.7134H95.0553V84.4836C95.0553 88.9377 90.0265 96.409 78.8195 96.409Z" fill="#10B981"/>
    <path d="M122.577 20.2588H144.847V0H122.577V20.2588ZM123.008 109.196H144.272V33.7647H123.008V109.196Z" fill="#10B981"/>
    <path d="M187.476 111.495C207.016 111.495 218.655 103.593 218.655 87.5009C218.655 72.2708 207.304 68.2478 195.378 64.9432C182.447 61.4949 172.102 59.627 172.102 53.8799C172.102 48.7074 178.137 46.9832 184.459 46.9832C190.35 46.9832 196.528 49.1384 197.39 56.7534H217.505C216.499 41.3797 206.011 31.4658 185.321 31.4658C167.074 31.4658 152.849 37.9314 152.993 54.0235C153.137 68.9662 165.349 74.426 182.304 79.0238C188.913 80.8916 198.108 82.7594 198.108 88.2193C198.108 93.2481 193.798 95.6906 187.045 95.6906C176.7 95.6906 171.24 92.386 169.516 84.4836H149.832C151.269 100.576 163.05 111.495 187.476 111.495Z" fill="#10B981"/>
    <path d="M257.433 111.495C278.985 111.495 292.348 97.2711 293.641 84.3399H272.807C271.514 89.6561 266.198 94.6849 258.152 94.6849C248.525 94.6849 242.778 87.9319 241.629 77.1559H293.497V68.1041C293.497 44.828 277.549 31.4658 257.002 31.4658C234.157 31.4658 220.508 47.8453 220.508 71.4088C220.508 94.6849 233.87 111.495 257.433 111.495ZM241.772 64.0811C241.772 53.7362 248.525 48.2763 257.433 48.2763C265.91 48.2763 272.52 53.8798 272.52 64.0811H241.772Z" fill="#10B981"/>
</svg>
