<svg width="534" height="203" viewBox="0 0 534 203" fill="none"
    xmlns="http://www.w3.org/2000/svg">
    <path d="M0 198.329H38.622V144.311C38.622 115.866 53.7577 96.816 82.7242 96.816H86.8995V57.933C75.9392 57.933 68.1105 58.9769 60.5426 62.3693C50.6262 66.8057 42.7974 76.4612 37.3172 87.1605V61.3255H0V198.329Z" fill="#ECFDF5"/>
    <path d="M128.543 201.2C149.942 201.2 165.338 192.588 173.167 180.062H173.95V198.329H211.267V117.432C211.267 72.2858 188.825 57.1502 150.725 57.1502C103.23 57.1502 90.1819 80.6365 89.399 104.123H126.455C126.977 95.7722 132.196 85.8557 150.203 85.8557C166.382 85.8557 172.384 94.4674 172.384 108.559V115.605H164.033C130.109 115.605 110.798 120.302 98.7936 128.914C88.0942 136.743 82.8751 147.442 82.8751 160.49C82.8751 181.628 96.184 201.2 128.543 201.2ZM143.157 175.104C130.109 175.104 121.758 169.624 121.758 158.402C121.758 141.962 141.591 135.699 166.904 135.699H172.645V153.444C172.645 161.534 163.512 175.104 143.157 175.104Z" fill="#ECFDF5"/>
    <path d="M222.631 36.7953H263.08V0H222.631V36.7953ZM223.414 198.329H262.036V61.3255H223.414V198.329Z" fill="#ECFDF5"/>
    <path d="M340.505 202.505C375.996 202.505 397.134 188.152 397.134 158.924C397.134 131.263 376.518 123.956 354.858 117.954C331.372 111.691 312.583 108.298 312.583 97.8599C312.583 88.4653 323.543 85.3338 335.025 85.3338C345.725 85.3338 356.946 89.2482 358.512 103.079H395.046C393.219 75.1564 374.169 57.1502 336.591 57.1502C303.449 57.1502 277.614 68.8933 277.875 98.1208C278.136 125.261 300.318 135.177 331.111 143.528C343.115 146.92 359.816 150.313 359.816 160.229C359.816 169.363 351.988 173.799 339.722 173.799C320.933 173.799 311.017 167.797 307.885 153.444H272.134C274.744 182.672 296.142 202.505 340.505 202.505Z" fill="#ECFDF5"/>
    <path d="M467.566 202.505C506.71 202.505 530.979 176.67 533.328 153.183H495.489C493.14 162.839 483.485 171.972 468.871 171.972C451.387 171.972 440.948 159.707 438.861 140.135H533.067V123.695C533.067 81.4194 504.1 57.1502 466.783 57.1502C425.291 57.1502 400.5 86.8996 400.5 129.697C400.5 171.972 424.769 202.505 467.566 202.505ZM439.122 116.388C439.122 97.5989 451.387 87.6824 467.566 87.6824C482.963 87.6824 494.967 97.8598 494.967 116.388H439.122Z" fill="#ECFDF5"/>
</svg>
